<?xml version="1.0" encoding="UTF-8"?>
<svg width="60px" height="60px" viewBox="0 0 60 60" version="1.1" xmlns="http://www.w3.org/2000/svg" xmlns:xlink="http://www.w3.org/1999/xlink">
    <!-- Generator: Sketch 49.1 (51147) - http://www.bohemiancoding.com/sketch -->
    <title>corazón</title>
    <desc>Created with Sketch.</desc>
    <defs></defs>
    <g id="Page-1" stroke="none" stroke-width="1" fill="none" fill-rule="evenodd">
        <g id="Desktop-HD" transform="translate(-948.000000, -99.000000)" fill="#4A4A4A">
            <g id="corazones" transform="translate(948.000000, 99.000000)">
                <g id="corazón">
                    <rect id="Rectangle-10" x="27.2064777" y="6.80161943" width="5.58704453" height="5.58704453"></rect>
                    <rect id="Rectangle-10" x="27.2064777" y="13.6032389" width="5.58704453" height="5.58704453"></rect>
                    <rect id="Rectangle-10" x="27.2064777" y="20.4048583" width="5.58704453" height="5.58704453"></rect>
                    <rect id="Rectangle-10" x="27.2064777" y="27.2064777" width="5.58704453" height="5.58704453"></rect>
                    <rect id="Rectangle-10" x="27.2064777" y="34.0080972" width="5.58704453" height="5.58704453"></rect>
                    <rect id="Rectangle-10" x="27.2064777" y="40.8097166" width="5.58704453" height="5.58704453"></rect>
                    <rect id="Rectangle-10" x="27.2064777" y="47.611336" width="5.58704453" height="5.58704453"></rect>
                    <rect id="Rectangle-10" x="27.2064777" y="54.4129555" width="5.58704453" height="5.58704453"></rect>
                    <rect id="Rectangle-10" x="34.0080972" y="0" width="5.58704453" height="5.58704453"></rect>
                    <rect id="Rectangle-10" x="34.0080972" y="6.80161943" width="5.58704453" height="5.58704453"></rect>
                    <rect id="Rectangle-10" x="34.0080972" y="13.6032389" width="5.58704453" height="5.58704453"></rect>
                    <rect id="Rectangle-10" x="34.0080972" y="20.4048583" width="5.58704453" height="5.58704453"></rect>
                    <rect id="Rectangle-10" x="34.0080972" y="27.2064777" width="5.58704453" height="5.58704453"></rect>
                    <rect id="Rectangle-10" x="34.0080972" y="34.0080972" width="5.58704453" height="5.58704453"></rect>
                    <rect id="Rectangle-10" x="34.0080972" y="40.8097166" width="5.58704453" height="5.58704453"></rect>
                    <rect id="Rectangle-10" x="34.0080972" y="47.611336" width="5.58704453" height="5.58704453"></rect>
                    <rect id="Rectangle-10" x="40.8097166" y="0" width="5.58704453" height="5.58704453"></rect>
                    <rect id="Rectangle-10" x="40.8097166" y="6.80161943" width="5.58704453" height="5.58704453"></rect>
                    <rect id="Rectangle-10" x="40.8097166" y="13.6032389" width="5.58704453" height="5.58704453"></rect>
                    <rect id="Rectangle-10" x="40.8097166" y="20.4048583" width="5.58704453" height="5.58704453"></rect>
                    <rect id="Rectangle-10" x="40.8097166" y="27.2064777" width="5.58704453" height="5.58704453"></rect>
                    <rect id="Rectangle-10" x="40.8097166" y="34.0080972" width="5.58704453" height="5.58704453"></rect>
                    <rect id="Rectangle-10" x="40.8097166" y="40.8097166" width="5.58704453" height="5.58704453"></rect>
                    <rect id="Rectangle-10" x="47.611336" y="0" width="5.58704453" height="5.58704453"></rect>
                    <rect id="Rectangle-10" x="47.611336" y="6.80161943" width="5.58704453" height="5.58704453"></rect>
                    <rect id="Rectangle-10" x="47.611336" y="13.6032389" width="5.58704453" height="5.58704453"></rect>
                    <rect id="Rectangle-10" x="47.611336" y="20.4048583" width="5.58704453" height="5.58704453"></rect>
                    <rect id="Rectangle-10" x="47.611336" y="27.2064777" width="5.58704453" height="5.58704453"></rect>
                    <rect id="Rectangle-10" x="47.611336" y="34.0080972" width="5.58704453" height="5.58704453"></rect>
                    <rect id="Rectangle-10" x="54.4129555" y="6.80161943" width="5.58704453" height="5.58704453"></rect>
                    <rect id="Rectangle-10" x="54.4129555" y="13.6032389" width="5.58704453" height="5.58704453"></rect>
                    <rect id="Rectangle-10" x="54.4129555" y="20.4048583" width="5.58704453" height="5.58704453"></rect>
                    <rect id="Rectangle-10" x="54.4129555" y="27.2064777" width="5.58704453" height="5.58704453"></rect>
                    <rect id="Rectangle-10" x="20.4048583" y="0" width="5.58704453" height="5.58704453"></rect>
                    <rect id="Rectangle-10" x="20.4048583" y="6.80161943" width="5.58704453" height="5.58704453"></rect>
                    <rect id="Rectangle-10" x="20.4048583" y="13.6032389" width="5.58704453" height="5.58704453"></rect>
                    <rect id="Rectangle-10" x="20.4048583" y="20.4048583" width="5.58704453" height="5.58704453"></rect>
                    <rect id="Rectangle-10" x="20.4048583" y="27.2064777" width="5.58704453" height="5.58704453"></rect>
                    <rect id="Rectangle-10" x="20.4048583" y="34.0080972" width="5.58704453" height="5.58704453"></rect>
                    <rect id="Rectangle-10" x="20.4048583" y="40.8097166" width="5.58704453" height="5.58704453"></rect>
                    <rect id="Rectangle-10" x="20.4048583" y="47.611336" width="5.58704453" height="5.58704453"></rect>
                    <rect id="Rectangle-10" x="13.6032389" y="0" width="5.58704453" height="5.58704453"></rect>
                    <rect id="Rectangle-10" x="13.6032389" y="6.80161943" width="5.58704453" height="5.58704453"></rect>
                    <rect id="Rectangle-10" x="13.6032389" y="13.6032389" width="5.58704453" height="5.58704453"></rect>
                    <rect id="Rectangle-10" x="13.6032389" y="20.4048583" width="5.58704453" height="5.58704453"></rect>
                    <rect id="Rectangle-10" x="13.6032389" y="27.2064777" width="5.58704453" height="5.58704453"></rect>
                    <rect id="Rectangle-10" x="13.6032389" y="34.0080972" width="5.58704453" height="5.58704453"></rect>
                    <rect id="Rectangle-10" x="13.6032389" y="40.8097166" width="5.58704453" height="5.58704453"></rect>
                    <rect id="Rectangle-10" x="6.80161943" y="0" width="5.58704453" height="5.58704453"></rect>
                    <rect id="Rectangle-10" x="6.80161943" y="6.80161943" width="5.58704453" height="5.58704453"></rect>
                    <rect id="Rectangle-10" x="6.80161943" y="13.6032389" width="5.58704453" height="5.58704453"></rect>
                    <rect id="Rectangle-10" x="6.80161943" y="20.4048583" width="5.58704453" height="5.58704453"></rect>
                    <rect id="Rectangle-10" x="6.80161943" y="27.2064777" width="5.58704453" height="5.58704453"></rect>
                    <rect id="Rectangle-10" x="6.80161943" y="34.0080972" width="5.58704453" height="5.58704453"></rect>
                    <rect id="Rectangle-10" x="0" y="6.80161943" width="5.58704453" height="5.58704453"></rect>
                    <rect id="Rectangle-10" x="0" y="13.6032389" width="5.58704453" height="5.58704453"></rect>
                    <rect id="Rectangle-10" x="0" y="20.4048583" width="5.58704453" height="5.58704453"></rect>
                    <rect id="Rectangle-10" x="0" y="27.2064777" width="5.58704453" height="5.58704453"></rect>
                </g>
            </g>
        </g>
    </g>
</svg>