<?xml version="1.0" standalone="no"?>
<!DOCTYPE svg PUBLIC "-//W3C//DTD SVG 20010904//EN"
 "http://www.w3.org/TR/2001/REC-SVG-20010904/DTD/svg10.dtd">
<svg version="1.0" xmlns="http://www.w3.org/2000/svg"
 width="89.000000pt" height="89.000000pt" viewBox="0 0 89.000000 89.000000"
 preserveAspectRatio="xMidYMid meet">
<metadata>
Created by potrace 1.11, written by Peter Selinger 2001-2013
</metadata>
<g transform="translate(0.000000,89.000000) scale(0.100000,-0.100000)"
fill="#000000" stroke="none">
<path d="M0 445 l0 -445 445 0 445 0 0 445 0 445 -445 0 -445 0 0 -445z m740
320 l0 -55 -50 0 -50 0 0 55 0 55 50 0 50 0 0 -55z m0 -120 l0 -55 -50 0 -50
0 0 55 0 55 50 0 50 0 0 -55z m0 -125 l0 -50 -50 0 -50 0 0 50 0 50 50 0 50 0
0 -50z m0 -125 l0 -55 -50 0 -50 0 0 55 0 55 50 0 50 0 0 -55z m0 -120 l0 -55
-50 0 -50 0 0 55 0 55 50 0 50 0 0 -55z m-482 -122 l3 -53 -55 0 -56 0 0 56 0
55 53 -3 52 -3 3 -52z m122 2 l0 -55 -55 0 -55 0 0 55 0 55 55 0 55 0 0 -55z
m120 0 l0 -55 -55 0 -55 0 0 55 0 55 55 0 55 0 0 -55z m120 0 l0 -55 -55 0
-55 0 0 48 c0 27 3 52 7 55 3 4 28 7 55 7 l48 0 0 -55z m120 0 l0 -55 -50 0
-50 0 0 55 0 55 50 0 50 0 0 -55z"/>
</g>
</svg>
